<?xml version="1.0" encoding="utf-8"?>
<!-- Generator: Adobe Illustrator 22.0.1, SVG Export Plug-In . SVG Version: 6.00 Build 0)  -->
<svg version="1.1" id="Layer_1" xmlns="http://www.w3.org/2000/svg" xmlns:xlink="http://www.w3.org/1999/xlink" x="0px" y="0px"
	 viewBox="0 0 438 100" style="enable-background:new 0 0 438 100;" xml:space="preserve">
<defs>
	<path id="SVGID_1_" d="M438,100c-7,0-12-11-12-11l-26.9-56.8c-0.8-1.5-2.1-2.8-3.5-3.7c-4.9-3.2-11.6-1.8-14.8,3.2l-4.1,6.3
		c-3.7,5.7-6.8,11.8-9.2,18.1l-0.6,1.5c-0.3,0.8-0.9,1.6-1.6,2.1c-2.2,1.7-5.3,1.2-6.9-0.9c-0.3-0.4-0.6-0.7-0.9-1
		c-3-2.7-7.6-2.5-10.3,0.5l-12.4,13.7c-1.2,1.4-2.7,2.6-4.2,3.6c-9.5,6-22.2,3.2-28.2-6.3l-6.2-9.9c-0.7-1.1-1.6-2-2.6-2.8
		c-4.6-3.4-11.2-2.5-14.6,2.2c-0.7,1-1.6,1.8-2.6,2.5c-4.9,3.4-11.7,2.2-15.1-2.8c0,0-14.1-19.1-14.9-20.6C238,22,221,17,211.8,38.6
		c0,0-23.5,52.7-28.9,56.5l-3.1,2.2c-0.1,0.1-0.3,0.2-0.4,0.3c-6.1,4-14.3,2.2-18.3-3.9l-20.5-60.5c-0.8-1.2-1.9-2.1-3.2-2.7
		c-3.6-1.6-7.9,0.1-9.5,3.7c-0.6,1.3-1.5,2.4-2.7,3.2c-3.3,2.2-7.8,1.2-10-2.1l-0.7-1.1c-0.9-1.3-2.1-2.3-3.5-2.9
		c-3.9-1.6-8.3,0.3-9.9,4.2l-15.6,39c-0.3,0.7-0.7,1.3-1.2,1.9c-2.4,2.7-6.5,3-9.2,0.6l-0.6-0.5c-3.9-3.4-9.4-4.6-14.3-2.9
		c-0.1,0-0.2,0.1-0.3,0.1c-4.3,1.2-8.8-1.3-10-5.6l-7.4-26.2c-0.3-1.2-1.2-2.2-2.3-2.7c-2.1-1-4.6,0-5.6,2.1L12,94c0,0-1,6-12,6"/>
</defs>
<clipPath id="SVGID_2_">
	<use xlink:href="#SVGID_1_"  style="overflow:visible;"/>
</clipPath>
<use xlink:href="#SVGID_1_"  style="overflow:visible;fill-rule:evenodd;clip-rule:evenodd;fill:none;stroke:#000000;stroke-width:8;stroke-linecap:square;stroke-linejoin:bevel;stroke-miterlimit:10;"/>
</svg>
